<svg width="73" height="20" viewBox="0 0 73 20" fill="none" xmlns="http://www.w3.org/2000/svg">
<path d="M5.40027 1.06946L0.61499 15.0903H3.42634L4.77818 10.9989H8.66622L10.0539 15.0903H12.9251L8.13984 1.06946H5.40027ZM7.99628 8.67805H5.48401L6.52481 5.59154C6.59658 5.3762 6.66836 5.17283 6.72818 4.95749C6.79996 5.17283 6.85977 5.38817 6.94352 5.60351L7.99628 8.67805Z" fill="white"/>
<path d="M17.6625 8.71394C16.3705 8.19952 16.2269 7.96026 16.2269 7.5894C16.2269 7.12284 16.6217 6.82376 17.2558 6.82376C18.0214 6.82376 18.6076 7.12284 18.8947 7.30228L19.445 7.64922L20.1748 5.42406L19.8518 5.20873C19.2177 4.79001 18.2607 4.55075 17.2917 4.55075C15.1263 4.55075 13.5592 5.91455 13.5592 7.80474C13.5592 9.5394 15.0904 10.4606 16.3825 10.9271C17.6625 11.4057 17.7702 11.7406 17.7702 12.1474C17.7702 12.913 16.9567 13.0327 16.4901 13.0327C15.7484 13.0327 14.9469 12.7096 14.4923 12.4465L13.942 12.1235L13.2242 14.3965L13.5711 14.5998C14.3607 15.0664 15.4015 15.3296 16.4542 15.3296C18.8349 15.3296 20.438 13.9897 20.438 12.0038C20.438 9.98204 18.8469 9.15658 17.6625 8.71394Z" fill="white"/>
<path d="M24.661 2.32559L21.9812 3.13909V4.74216H20.5457V7.05105H21.9932V11.633C21.9932 12.913 22.2564 13.8222 22.7828 14.4323C23.2972 15.0066 24.0868 15.3176 24.984 15.3176C25.7975 15.3176 26.3837 15.1501 26.6588 15.0544L27.0177 14.9228L26.8742 12.602L26.2641 12.7934C26.0726 12.8412 25.8693 12.8891 25.4266 12.8891C25.1036 12.8891 24.661 12.8891 24.661 11.5851V7.05105H27.0895V4.74216H24.673L24.661 2.32559Z" fill="white"/>
<path d="M33.6095 4.64646L33.119 4.58664C32.9754 4.56271 32.8319 4.55075 32.6404 4.55075C31.7911 4.55075 31.0134 4.89768 30.4153 5.50781L30.3914 4.74216H27.8791L27.915 5.28051C27.9628 6.07008 27.9987 6.99124 27.9987 8.16363V15.1023H30.7144V9.61118C30.7144 9.34799 30.7383 9.09676 30.7622 8.90535C30.9656 7.82867 31.6355 7.15873 32.5328 7.15873C32.7481 7.15873 32.8797 7.15873 32.9993 7.18265L33.6095 7.31425V4.64646Z" fill="white"/>
<path d="M38.5623 4.55075C35.5356 4.55075 33.4181 6.78787 33.4181 10.006C33.4181 13.1284 35.4638 15.3176 38.3948 15.3176C40.8831 15.3176 43.5509 13.6069 43.5509 9.85044C43.5748 6.72805 41.5172 4.55075 38.5623 4.55075ZM40.8233 9.8983C40.8233 11.7047 39.8423 13.0207 38.5024 13.0207C37.1626 13.0207 36.1936 11.7167 36.1936 9.94615C36.1936 8.79768 36.696 6.84768 38.5503 6.84768C40.3448 6.83572 40.8233 8.83357 40.8233 9.8983Z" fill="white"/>
<path d="M52.4754 2.18204C51.5782 1.3805 50.2383 0.973755 48.4917 0.973755C47.3193 0.973755 46.2067 1.0575 45.1898 1.23694L44.7711 1.30872V15.1023H47.4628V9.97007C47.738 9.994 48.0251 10.006 48.3003 10.006C50.1187 10.006 51.6619 9.44369 52.6429 8.42682C53.4085 7.64922 53.7914 6.59645 53.7914 5.29247C53.7794 4.03633 53.3248 2.93572 52.4754 2.18204ZM51.0877 5.37621C51.0877 7.33817 49.365 7.62529 48.3362 7.62529C47.9892 7.62529 47.7021 7.61333 47.4509 7.57744V3.36639C47.7141 3.3305 48.073 3.31854 48.5276 3.31854C49.7 3.3305 51.0877 3.6894 51.0877 5.37621Z" fill="white"/>
<path d="M62.046 12.3508V8.8575C62.046 6.07008 60.5984 4.55075 57.9905 4.55075C56.7822 4.55075 55.5141 4.88572 54.6288 5.43603L54.2938 5.65136L55.0236 7.80474L55.5859 7.42192C56.1481 7.03909 56.9616 6.81179 57.7632 6.81179C58.3015 6.79983 58.7083 6.93143 58.9714 7.19462C59.1868 7.40995 59.3184 7.73296 59.3662 8.13971C57.2487 8.19952 55.6935 8.71394 54.7604 9.64707C54.1024 10.2931 53.7675 11.1305 53.7675 12.1235C53.7675 13.7026 54.9159 15.3176 57.1291 15.3176C58.0742 15.3176 58.9595 15.0185 59.6533 14.4802L59.7251 15.0903H62.2972L62.2135 14.5041C62.0819 13.9419 62.046 13.2121 62.046 12.3508ZM57.5239 13.0446C57.1171 13.0446 56.4472 12.9011 56.4472 11.932C56.4472 11.5612 56.5549 11.2741 56.7941 11.0348C57.1171 10.7238 57.811 10.3649 59.3902 10.329V11.4415C59.3902 11.5253 59.3782 11.6688 59.3423 11.8244C59.1389 12.3866 58.5527 13.0446 57.5239 13.0446Z" fill="white"/>
<path d="M69.511 4.74216L67.549 10.5682C67.5012 10.7118 67.4533 10.8673 67.4055 11.0109C67.3576 10.8673 67.3098 10.7238 67.2499 10.5922L65.1085 4.74216H62.1417L65.8503 14.0376L65.8622 14.0615C65.922 14.1811 65.946 14.2529 65.946 14.2768C65.922 14.3247 65.8861 14.4204 65.8622 14.4802C65.5392 15.1741 65.0607 15.8081 64.5822 16.1909L64.5702 16.2029C64.0318 16.6575 63.4696 16.8728 63.2542 16.9326L62.7757 17.0882L63.4696 19.409L63.9122 19.3253C64.1874 19.2774 65.1444 19.0501 66.245 18.129C67.561 16.9685 68.4343 15.1023 69.5828 12.0756L72.3941 4.73019L69.511 4.74216Z" fill="white"/>
<path d="M10.5325 4.93358C12.2791 3.15106 15.246 2.08634 18.4641 2.08634C19.7202 2.08634 20.9405 2.24186 22.0889 2.56487L22.1846 2.58879L24.2543 1.96671L23.3212 1.61978C21.5626 0.949837 19.5288 0.590942 17.4472 0.590942C14.4205 0.590942 11.6092 1.3207 9.49171 2.64861L9.2644 2.79217L10.1377 5.34033L10.5325 4.93358Z" fill="#FF0000"/>
</svg>
