<svg width="44" height="56" viewBox="0 0 44 56" fill="none" xmlns="http://www.w3.org/2000/svg">
<path fill-rule="evenodd" clip-rule="evenodd" d="M25.3587 32.2698C32.7012 30.711 38.2123 24.158 38.2123 16.3109C38.2123 8.46376 32.7012 1.91043 25.3587 0.35195V2.37696C31.1002 3.75441 35.4925 8.62647 36.1892 14.6337H28.7812C28.0342 11.5878 25.2997 9.32901 22.0404 9.32901C18.2058 9.32901 15.0974 12.455 15.0974 16.3106C15.0974 20.1662 18.2058 23.2922 22.0404 23.2922C25.3 23.2922 28.0345 21.0331 28.7812 17.9877H36.1892C35.4925 23.995 31.1002 28.867 25.3587 30.2445V32.2695V32.2698ZM22.0404 5.56694C26.7827 5.56694 30.8024 8.67406 32.1983 12.974H34.266C32.9489 8.08228 28.8063 4.35877 23.708 3.68413V0.0902436C23.144 0.0306281 22.5712 0 21.9914 0C21.4451 0 20.905 0.0270731 20.3725 0.0801254V3.6844C14.1655 4.50562 9.37421 9.84531 9.37421 16.3109C9.37421 22.7764 14.1655 28.1164 20.3725 28.9373V32.5416C20.905 32.5946 21.4451 32.6217 21.9914 32.6217C22.5712 32.6217 23.144 32.5911 23.708 32.5315V28.9373C28.8063 28.2629 32.9486 24.5394 34.266 19.6477H32.1983C30.8024 23.9477 26.7824 27.0548 22.0404 27.0548C16.1396 27.0548 11.3559 22.2445 11.3559 16.3109C11.3559 10.3772 16.1396 5.56721 22.0404 5.56721V5.56694ZM5.77112 16.3109C5.77112 24.1927 11.3309 30.769 18.722 32.29V30.2447C12.4546 28.741 7.79417 23.0737 7.79417 16.3109C7.79417 9.54805 12.4546 3.88048 18.722 2.37696V0.33144C11.3306 1.85273 5.77112 8.42876 5.77112 16.3109Z" fill="#FFA836"/>
<path d="M5.68844 40.014C5.68844 39.5844 5.76513 39.1562 5.91879 38.7298C6.07244 38.3035 6.29435 37.9206 6.58507 37.5815C6.87551 37.2424 7.23123 36.9687 7.65194 36.7606C8.07265 36.5525 8.55019 36.4483 9.08431 36.4483C9.71877 36.4483 10.2646 36.5927 10.7223 36.8815C11.1797 37.1703 11.5218 37.5463 11.7492 38.0095L10.8675 38.6038C10.7739 38.3888 10.657 38.2075 10.517 38.0598C10.3766 37.9122 10.2246 37.7946 10.0612 37.7073C9.89744 37.6201 9.72883 37.558 9.55533 37.5211C9.38155 37.4842 9.21131 37.4656 9.04433 37.4656C8.68372 37.4656 8.36472 37.5411 8.0876 37.6923C7.81048 37.8435 7.57824 38.0432 7.39141 38.2917C7.2043 38.5403 7.06425 38.819 6.9707 39.1277C6.87715 39.4367 6.83037 39.7458 6.83037 40.0545C6.83037 40.4037 6.88558 40.7362 6.99572 41.0518C7.10586 41.3674 7.26114 41.6461 7.46157 41.8878C7.662 42.1296 7.89887 42.3226 8.17272 42.467C8.44658 42.6114 8.74709 42.6836 9.07425 42.6836C9.24122 42.6836 9.41636 42.662 9.6002 42.6182C9.78377 42.5748 9.95727 42.5042 10.121 42.4066C10.2844 42.3092 10.4365 42.1867 10.5768 42.0388C10.7171 41.8911 10.8338 41.7131 10.9273 41.505L11.859 42.0388C11.7454 42.3076 11.5868 42.5441 11.3831 42.749C11.1794 42.9538 10.9507 43.1266 10.697 43.2677C10.443 43.4088 10.1727 43.5163 9.88548 43.5901C9.5983 43.664 9.31438 43.7009 9.034 43.7009C8.53959 43.7009 8.08896 43.5937 7.68158 43.3785C7.27419 43.1635 6.92175 42.8832 6.62477 42.5373C6.32753 42.1916 6.09719 41.7987 5.93347 41.3587C5.76976 40.9189 5.68817 40.4707 5.68817 40.014H5.68844Z" fill="white"/>
<path d="M15.9462 39.329C15.5187 39.3424 15.1415 39.4417 14.8143 39.6263C14.4872 39.8112 14.25 40.0745 14.1032 40.4172V43.6405H13.0012V38.3722H14.0229V39.5508C14.2098 39.1882 14.4485 38.8929 14.7393 38.6642C15.0297 38.4359 15.3386 38.3219 15.6658 38.3219H15.8312C15.8744 38.3219 15.9127 38.3254 15.9465 38.332V39.3293L15.9462 39.329Z" fill="white"/>
<path d="M17.1583 44.8894C17.2519 44.9096 17.3386 44.923 17.4189 44.9296C17.4991 44.9362 17.5725 44.9397 17.6391 44.9397C17.7259 44.9397 17.8026 44.9296 17.8695 44.9094C17.9361 44.8891 18.0014 44.8372 18.0647 44.7532C18.1281 44.6693 18.1983 44.5399 18.2752 44.3654C18.3519 44.1907 18.4438 43.9489 18.5507 43.6402L16.4069 38.3719H17.5388L19.1615 42.6631L20.604 38.3719H21.6458L19.2515 44.859C19.1177 45.2217 18.9176 45.4902 18.6505 45.6649C18.3835 45.8394 18.0729 45.9269 17.7188 45.9269C17.5252 45.9269 17.3381 45.9001 17.1578 45.8462V44.8894H17.1583Z" fill="white"/>
<path d="M25.6728 43.7411C25.2521 43.7411 24.8831 43.6405 24.566 43.439C24.2486 43.2374 23.9933 42.9757 23.7996 42.6533V45.7861H22.6977V38.3722H23.6694V39.3189C23.8698 39.0034 24.1301 38.7515 24.4507 38.5633C24.7713 38.3755 25.1319 38.2814 25.5325 38.2814C25.8863 38.2814 26.2138 38.3555 26.5143 38.5029C26.8148 38.6506 27.0753 38.8488 27.2956 39.0971C27.5159 39.3457 27.6877 39.6345 27.8115 39.9635C27.9349 40.2925 27.9967 40.6384 27.9967 41.001C27.9967 41.3839 27.9398 41.7413 27.8264 42.0738C27.7128 42.4064 27.5526 42.6951 27.3456 42.9402C27.1384 43.1855 26.8931 43.3802 26.6095 43.5243C26.3255 43.6687 26.0133 43.7409 25.6728 43.7409V43.7411ZM25.3223 42.7944C25.5494 42.7944 25.7596 42.7441 25.9535 42.6432C26.1471 42.5425 26.3106 42.4083 26.4444 42.2404C26.5779 42.0727 26.6831 41.8813 26.7598 41.6661C26.8365 41.4511 26.8751 41.2296 26.8751 41.0013C26.8751 40.7595 26.8333 40.5312 26.75 40.3163C26.6666 40.1013 26.5513 39.9134 26.4044 39.7521C26.2573 39.591 26.0838 39.4633 25.8836 39.3692C25.6832 39.2752 25.4694 39.2281 25.2423 39.2281C25.102 39.2281 24.9552 39.2549 24.8015 39.3088C24.6479 39.3627 24.5026 39.4365 24.3658 39.5303C24.2288 39.6244 24.1105 39.7335 24.0101 39.8577C23.9101 39.9821 23.8399 40.118 23.7996 40.2657V41.6456C23.8663 41.8066 23.9533 41.9579 24.0602 42.099C24.167 42.2401 24.2873 42.361 24.4208 42.4616C24.5543 42.5622 24.6979 42.6429 24.8516 42.7033C25.0052 42.7638 25.1621 42.7941 25.3223 42.7941V42.7944Z" fill="white"/>
<path d="M32.154 43.3684C32.0071 43.4357 31.8116 43.5111 31.5679 43.5951C31.324 43.679 31.0586 43.7209 30.7717 43.7209C30.5979 43.7209 30.4361 43.6974 30.2857 43.6503C30.1353 43.6033 30.0018 43.533 29.8851 43.4387C29.7682 43.3446 29.6762 43.2221 29.6096 43.0711C29.5427 42.9199 29.5095 42.7372 29.5095 42.522V39.2281H28.8082V38.3719H29.5095V36.6392H30.6115V38.3719H31.7534V39.2281H30.6115V42.1695C30.6115 42.3577 30.6648 42.4936 30.7717 42.5775C30.8785 42.6615 31.0085 42.7033 31.1625 42.7033C31.3164 42.7033 31.463 42.6765 31.6033 42.6226C31.7436 42.569 31.847 42.5253 31.9139 42.4917L32.1543 43.3681L32.154 43.3684Z" fill="white"/>
<path d="M35.3998 43.7411C34.9856 43.7411 34.6133 43.667 34.2829 43.5196C33.9522 43.3719 33.6702 43.1737 33.4363 42.9254C33.2024 42.6771 33.0221 42.3864 32.8954 42.0541C32.7684 41.7216 32.705 41.3743 32.705 41.0117C32.705 40.649 32.7684 40.3015 32.8954 39.9692C33.0221 39.6367 33.2043 39.3465 33.4415 39.0979C33.6783 38.8496 33.9623 38.6514 34.2929 38.5037C34.6236 38.356 34.9924 38.2822 35.3998 38.2822C35.8072 38.2822 36.1762 38.3563 36.5066 38.5037C36.8373 38.6514 37.121 38.8496 37.3581 39.0979C37.595 39.3465 37.7772 39.6369 37.9042 39.9692C38.0309 40.3017 38.0946 40.649 38.0946 41.0117C38.0946 41.3743 38.0309 41.7218 37.9042 42.0541C37.7772 42.3866 37.5953 42.6771 37.3581 42.9254C37.121 43.1739 36.8373 43.3719 36.5066 43.5196C36.1759 43.6673 35.8069 43.7411 35.3998 43.7411ZM33.8372 41.0212C33.8372 41.2764 33.8771 41.5115 33.9574 41.7262C34.0376 41.9412 34.1477 42.1277 34.2881 42.2852C34.4284 42.443 34.5935 42.5671 34.7838 42.6579C34.9742 42.7484 35.1795 42.7938 35.3998 42.7938C35.6201 42.7938 35.8257 42.7484 36.0158 42.6579C36.2061 42.5671 36.3715 42.4413 36.5115 42.2803C36.6519 42.1192 36.762 41.931 36.8422 41.7161C36.9224 41.5012 36.9624 41.2663 36.9624 41.0111C36.9624 40.756 36.9224 40.5293 36.8422 40.311C36.762 40.0928 36.6519 39.903 36.5115 39.742C36.3712 39.5809 36.2061 39.4548 36.0158 39.3643C35.8254 39.2735 35.6201 39.2284 35.3998 39.2284C35.1795 39.2284 34.984 39.2754 34.7936 39.3695C34.6032 39.4636 34.4379 39.591 34.2978 39.7523C34.1575 39.9134 34.0457 40.1032 33.9623 40.3214C33.8788 40.5397 33.8372 40.7732 33.8372 41.0215V41.0212Z" fill="white"/>
<path d="M0.394376 51.0744C0.394376 50.7052 0.457741 50.356 0.584742 50.0267C0.711472 49.6977 0.89368 49.4089 1.13082 49.1604C1.36769 48.9121 1.65324 48.7157 1.9872 48.571C2.32116 48.4267 2.69509 48.3545 3.10927 48.3545C3.65018 48.3545 4.11604 48.4737 4.50656 48.7122C4.89736 48.9506 5.18943 49.2678 5.38306 49.6641L4.3113 50.0065C4.1843 49.785 4.01406 49.6121 3.8003 49.4877C3.58655 49.3636 3.34941 49.3015 3.08915 49.3015C2.86887 49.3015 2.66354 49.3452 2.47318 49.4325C2.28281 49.5197 2.11746 49.6425 1.97741 49.8003C1.83708 49.9581 1.72694 50.1446 1.64671 50.3592C1.56649 50.5742 1.52651 50.8126 1.52651 51.0744C1.52651 51.3361 1.56812 51.5663 1.65161 51.7845C1.7351 52.0028 1.8485 52.1926 1.99209 52.3536C2.13568 52.5147 2.30266 52.6408 2.49303 52.7313C2.6834 52.8218 2.88518 52.8672 3.09921 52.8672C3.23274 52.8672 3.36627 52.8489 3.4998 52.8117C3.63332 52.7748 3.75516 52.7228 3.8653 52.6555C3.97544 52.5885 4.07225 52.5111 4.15574 52.4239C4.23923 52.3367 4.30097 52.2426 4.34094 52.142L5.42277 52.4644C5.24899 52.8606 4.95855 53.1847 4.55116 53.4365C4.14378 53.6884 3.66297 53.8142 3.10873 53.8142C2.70134 53.8142 2.33067 53.7401 1.99672 53.5927C1.66276 53.445 1.37721 53.2451 1.14034 52.9933C0.903198 52.7414 0.719631 52.451 0.589366 52.122C0.459101 51.793 0.394104 51.4438 0.394104 51.0744H0.394376Z" fill="white"/>
<path d="M8.17795 53.8142C7.63704 53.8142 7.22639 53.6346 6.94573 53.2752C6.66535 52.9162 6.52502 52.3805 6.52502 51.6686V48.4453H7.62697V51.4471C7.62697 52.3939 7.95767 52.8675 8.61878 52.8675C8.93941 52.8675 9.23992 52.7701 9.5203 52.5754C9.80069 52.3807 10.0177 52.0988 10.1714 51.7293V48.4456H11.2733V52.4042C11.2733 52.532 11.2967 52.6225 11.3435 52.6763C11.3902 52.7302 11.4737 52.7603 11.5939 52.7671V53.7139C11.4737 53.7341 11.3701 53.7475 11.2834 53.7541C11.1966 53.7606 11.1197 53.7642 11.053 53.7642C10.6388 53.7306 10.4052 53.5394 10.3519 53.1899L10.3318 52.646C10.0979 53.0288 9.79416 53.3193 9.42023 53.5172C9.04602 53.7152 8.63211 53.8145 8.17795 53.8145V53.8142Z" fill="white"/>
<path d="M15.8913 49.4021C15.4638 49.4155 15.0866 49.5148 14.7595 49.6994C14.4323 49.8843 14.1952 50.1476 14.0483 50.4903V53.7136H12.9464V48.4453H13.9681V49.6239C14.1549 49.2613 14.3937 48.966 14.6844 48.7373C14.9748 48.509 15.2838 48.395 15.6109 48.395H15.7763C15.8195 48.395 15.8579 48.3985 15.8916 48.4051V49.4024L15.8913 49.4021Z" fill="white"/>
<path d="M19.8881 49.4021C19.4606 49.4155 19.0834 49.5148 18.7563 49.6994C18.4291 49.8843 18.192 50.1476 18.0451 50.4903V53.7136H16.9432V48.4453H17.9649V49.6239C18.1517 49.2613 18.3908 48.966 18.6812 48.7373C18.9717 48.509 19.2806 48.395 19.6078 48.395H19.7731C19.8163 48.395 19.8547 48.3985 19.8884 48.4051V49.4024L19.8881 49.4021Z" fill="white"/>
<path d="M23.3341 53.8142C22.9267 53.8142 22.556 53.742 22.2221 53.5976C21.8881 53.4532 21.6026 53.2569 21.3657 53.0083C21.1285 52.76 20.945 52.4712 20.8147 52.142C20.6844 51.813 20.6194 51.4638 20.6194 51.0943C20.6194 50.7249 20.6844 50.374 20.8147 50.0417C20.945 49.7092 21.1285 49.4171 21.3657 49.1653C21.6026 48.9134 21.8881 48.7154 22.2221 48.571C22.556 48.4267 22.9299 48.3545 23.3441 48.3545C23.7583 48.3545 24.1206 48.4286 24.451 48.576C24.7817 48.7236 25.0637 48.9203 25.2976 49.1653C25.5312 49.4106 25.7098 49.6958 25.8336 50.0215C25.957 50.3472 26.0188 50.6879 26.0188 51.044C26.0188 51.1247 26.0152 51.2001 26.0087 51.2707C26.0019 51.3413 25.9951 51.4001 25.9886 51.4471H21.7913C21.8114 51.6823 21.8663 51.8937 21.9566 52.0818C22.0469 52.2699 22.1636 52.4327 22.3072 52.5705C22.4508 52.7083 22.6142 52.8139 22.7981 52.8877C22.9816 52.9618 23.1736 52.9985 23.374 52.9985C23.5209 52.9985 23.6661 52.9801 23.8097 52.9429C23.9533 52.906 24.0852 52.8522 24.2054 52.7819C24.3256 52.7113 24.4325 52.6257 24.526 52.5251C24.6196 52.4245 24.693 52.3134 24.7463 52.1926L25.6881 52.4647C25.5078 52.8609 25.2089 53.185 24.7915 53.4368C24.374 53.6887 23.8883 53.8145 23.3338 53.8145L23.3341 53.8142ZM24.9269 50.6814C24.9068 50.4599 24.8518 50.255 24.7615 50.0669C24.6715 49.879 24.5562 49.7193 24.4159 49.5883C24.2756 49.4573 24.1119 49.3551 23.925 49.281C23.7379 49.2071 23.541 49.1702 23.3341 49.1702C23.1271 49.1702 22.9316 49.2071 22.748 49.281C22.5642 49.3551 22.4024 49.4573 22.262 49.5883C22.1217 49.7193 22.008 49.8788 21.9216 50.0669C21.8348 50.255 21.7812 50.4599 21.7614 50.6814H24.9269Z" fill="white"/>
<path d="M31.8586 53.7133H30.7567V50.7618C30.7567 50.2649 30.6765 49.9039 30.5163 49.6789C30.3561 49.4541 30.1255 49.3414 29.825 49.3414C29.6648 49.3414 29.5027 49.3718 29.339 49.4322C29.1753 49.4926 29.0235 49.5782 28.8832 49.689C28.7429 49.7997 28.6178 49.9307 28.5076 50.0819C28.3975 50.2332 28.3124 50.3992 28.2523 50.5805V53.7133H27.1503V48.445H28.1522V49.5027C28.3526 49.147 28.6431 48.8667 29.0238 48.6616C29.4045 48.4567 29.8253 48.3545 30.2859 48.3545C30.5998 48.3545 30.8584 48.4116 31.0624 48.5257C31.266 48.64 31.4262 48.7961 31.5432 48.9941C31.6598 49.1924 31.7417 49.4207 31.7885 49.6791C31.8352 49.9378 31.8586 50.2116 31.8586 50.5001V53.7133Z" fill="white"/>
<path d="M33.0305 51.0744C33.0305 50.7052 33.0938 50.356 33.2208 50.0267C33.3476 49.6977 33.5298 49.4089 33.7669 49.1604C34.0038 48.9121 34.2893 48.7157 34.6233 48.571C34.9573 48.4267 35.3312 48.3545 35.7451 48.3545C36.286 48.3545 36.7519 48.4737 37.1427 48.7122C37.5335 48.9506 37.8255 49.2678 38.0192 49.6641L36.9474 50.0065C36.8204 49.785 36.6502 49.6121 36.4364 49.4877C36.2227 49.3636 35.9855 49.3015 35.7253 49.3015C35.505 49.3015 35.2994 49.3452 35.1093 49.4325C34.9189 49.5197 34.7536 49.6425 34.6135 49.8003C34.4732 49.9581 34.363 50.1446 34.2828 50.3592C34.2026 50.5742 34.1626 50.8126 34.1626 51.0744C34.1626 51.3361 34.2042 51.5663 34.2877 51.7845C34.3712 52.0028 34.4846 52.1926 34.6282 52.3536C34.7718 52.5147 34.9388 52.6408 35.1291 52.7313C35.3195 52.8218 35.5213 52.8672 35.7353 52.8672C35.8688 52.8672 36.0024 52.8489 36.1359 52.8117C36.2694 52.7748 36.3913 52.7228 36.5014 52.6555C36.6115 52.5885 36.7084 52.5111 36.7919 52.4239C36.8753 52.3367 36.9371 52.2426 36.977 52.142L38.0589 52.4644C37.8851 52.8606 37.5947 53.1847 37.1873 53.4365C36.7799 53.6884 36.2991 53.8142 35.7448 53.8142C35.3375 53.8142 34.9668 53.7401 34.6328 53.5927C34.2989 53.445 34.0133 53.2451 33.7764 52.9933C33.5393 52.7414 33.3557 52.451 33.2255 52.122C33.0952 51.793 33.0302 51.4438 33.0302 51.0744H33.0305Z" fill="white"/>
<path d="M39.2615 54.9625C39.355 54.9827 39.4418 54.9961 39.522 55.0027C39.6022 55.0093 39.6757 55.0128 39.7423 55.0128C39.829 55.0128 39.9057 55.0027 39.9726 54.9825C40.0393 54.9622 40.1045 54.9103 40.1679 54.8263C40.2313 54.7424 40.3014 54.613 40.3784 54.4386C40.4551 54.2638 40.547 54.0221 40.6539 53.7133L38.5101 48.445H39.6419L41.2647 52.7362L42.7071 48.445H43.749L41.3547 54.9322C41.2209 55.2948 41.0207 55.5633 40.7537 55.7381C40.4866 55.9125 40.176 56 39.822 56C39.6283 56 39.4412 55.9732 39.2609 55.9194V54.9625H39.2615Z" fill="white"/>
</svg>
