<svg width="16" height="24" viewBox="0 0 16 24" fill="none" xmlns="http://www.w3.org/2000/svg">
<path d="M8 9.00002V12L9.5 13.5M12.51 17.35L12.16 21.18C12.1149 21.6787 11.8845 22.1423 11.5142 22.4792C11.1439 22.8162 10.6607 23.002 10.16 23H5.83C5.32933 23.002 4.84611 22.8162 4.4758 22.4792C4.1055 22.1423 3.87506 21.6787 3.83 21.18L3.48 17.35M3.49 6.65002L3.84 2.82002C3.88491 2.32309 4.11393 1.8609 4.48211 1.52417C4.8503 1.18744 5.33105 1.00049 5.83 1.00002H10.18C10.6807 0.997985 11.1639 1.18381 11.5342 1.52079C11.9045 1.85776 12.1349 2.32137 12.18 2.82002L12.53 6.65002M15 12C15 15.866 11.866 19 8 19C4.13401 19 1 15.866 1 12C1 8.13402 4.13401 5.00002 8 5.00002C11.866 5.00002 15 8.13402 15 12Z" stroke="#FA2256" stroke-width="2" stroke-linecap="round" stroke-linejoin="round"/>
</svg>
