<svg width="23" height="22" viewBox="0 0 23 22" fill="none" xmlns="http://www.w3.org/2000/svg">
<path d="M8.15776 20.9917H8.16392L8.167 20.9978C8.54842 20.9978 8.91421 20.8463 9.18391 20.5766C9.45361 20.3069 9.60512 19.9411 9.60512 19.5597V12.7985L11.407 15.0401C11.4804 15.112 11.5675 15.1686 11.6631 15.2063C11.7588 15.2441 11.861 15.2623 11.9638 15.2599C12.0663 15.2561 12.1669 15.2311 12.2592 15.1863C12.3515 15.1416 12.4335 15.0781 12.5 15L14.012 12.9525V19.5412C14.0132 19.7326 14.0522 19.9219 14.1268 20.0982C14.2013 20.2744 14.31 20.4343 14.4465 20.5684C14.5815 20.7018 14.7421 20.8064 14.9187 20.8759C15.0952 20.9455 15.284 20.9786 15.4737 20.9732C17.0328 20.9679 18.586 20.7824 20.1024 20.4205C20.4179 20.3347 20.6964 20.1473 20.8947 19.8874C21.093 19.6274 21.2001 19.3094 21.1995 18.9824V2.95243C21.2001 2.51934 21.0433 2.10078 20.7584 1.77463C20.4734 1.44849 20.0797 1.23696 19.6504 1.17943C18.2617 1.04032 16.8661 0.982013 15.4706 1.0048C15.1058 1.00609 14.7466 1.09494 14.4233 1.26385C14.0999 1.43277 13.8218 1.67684 13.6124 1.97555L11.975 4.31146L9.99446 1.86255C9.77828 1.59822 9.50604 1.38524 9.19745 1.23903C8.88886 1.09281 8.55163 1.01701 8.21016 1.01712C6.65122 1.00373 5.09305 1.09159 3.54549 1.28011C3.21037 1.33042 2.89712 1.47716 2.64395 1.70242C2.39078 1.92768 2.20863 2.22174 2.1197 2.54874C1.61294 4.13395 1.23842 5.75842 1 7.40549C1.01104 7.75138 1.14752 8.08145 1.38396 8.33415C1.6204 8.58685 1.94068 8.74491 2.28507 8.77889V19.0985C2.28226 19.414 2.38042 19.7222 2.56524 19.978C2.75005 20.2338 3.01183 20.4238 3.31231 20.5202C4.9011 20.8811 6.52918 21.0395 8.15776 20.9917Z" stroke="#FA2256" stroke-width="2" stroke-linejoin="round"/>
</svg>
